<svg xmlns="http://www.w3.org/2000/svg" width="21" height="24" viewBox="0 0 21 24"><g><g><path fill="#e87845" d="M20.364 18.156c.444.561.636 1.186.56 1.805-.076.615-.41 1.179-.969 1.633-.242.2-.49.386-.73.564-.352.264-.688.513-.986.793-.007.011-.017.016-.024.024-.862.732-1.884 1.024-3.04.881-.1-.011-.21-.031-.314-.046-1.703-.318-3.16-1.15-4.244-1.834-2.834-1.821-5.218-4.2-7.088-7.077-1.54-2.385-2.503-4.548-3.045-6.826C.264 7.142 0 5.735.3 4.293A3.662 3.662 0 0 1 1.67 2.112L3.584.607l.01-.01C4.155.183 4.777 0 5.388.074c.61.074 1.16.4 1.586.939.288.34.564.696.827 1.044.13.179.27.357.407.53l1.198 1.528c.922 1.171.755 2.528-.425 3.447-.157.122-.315.252-.473.372-.416.33-.844.672-1.3.995.221.71.56 1.428 1.089 2.288 1.096 1.737 2.292 3.125 3.658 4.241.134.11.293.215.463.328.117.078.239.16.36.248l1.775-1.377c.568-.447 1.191-.635 1.806-.562.621.077 1.173.42 1.597.98zm-1.077.826l-2.42-3.087-.008-.007c-.134-.19-.365-.415-.676-.456-.315-.034-.61.136-.802.284l-1.921 1.496c-.096.075-.388.305-.803.252a1.097 1.097 0 0 1-.48-.187c-.02-.01-.038-.03-.056-.04-.134-.108-.294-.214-.463-.326a6.483 6.483 0 0 1-.575-.409c-1.481-1.207-2.775-2.706-3.947-4.575l-.005-.004C6.49 10.87 6.088 10.001 5.84 9.1c-.003-.013-.007-.027-.01-.046-.055-.294-.083-.725.4-1.101.006-.01.017-.012.028-.02.483-.335.933-.687 1.406-1.062.162-.121.32-.249.483-.38.596-.46.656-.95.191-1.543L7.138 3.423c-.14-.186-.28-.364-.415-.543-.267-.353-.521-.684-.791-1.001-.005-.009-.01-.012-.013-.019-.14-.18-.373-.4-.688-.44-.255-.029-.531.062-.805.262L2.51 3.172c-.466.362-.75.819-.873 1.397-.187.905-.136 1.888.176 3.19.505 2.127 1.413 4.159 2.867 6.417 1.764 2.708 4.012 4.953 6.676 6.664.975.622 2.285 1.366 3.76 1.645.074.014.155.023.23.034.78.093 1.407-.084 1.98-.565a13.03 13.03 0 0 1 1.088-.876c.241-.183.464-.352.685-.535-.005.004-.004 0 0 0 .576-.465.64-.989.188-1.561z"/></g></g></svg>