<svg xmlns="http://www.w3.org/2000/svg" width="19" height="23" viewBox="0 0 19 23"><g><g><path fill="#e87845" d="M6.166 10.94c-1.78-2.07-1.484-5.613-1.452-5.95.116-2.556 1.299-3.771 2.27-4.338C7.95.085 8.957-.002 9.47-.002h.079c.933.023 1.77.249 2.486.674.962.569 2.126 1.78 2.242 4.318.032.337.328 3.88-1.452 5.95-.808.938-1.904 1.427-3.258 1.455H9.42c-1.354-.028-2.45-.517-3.253-1.455zm.929-.855c.577.676 1.358 1.014 2.375 1.023h.046c1.022-.009 1.798-.347 2.38-1.023 1.47-1.702 1.147-4.943 1.142-4.975-.004-.01-.004-.026-.004-.04-.144-3.229-2.265-3.752-3.513-3.779h-.056c-1.007 0-3.36.368-3.512 3.78 0 .01-.005.024-.005.04-.004.025-.319 3.28 1.147 4.974zm11.674 10.338a.636.636 0 0 1-.24.3c-.14.09-3.462 2.278-9.022 2.278-5.56 0-8.883-2.183-9.022-2.277a.61.61 0 0 1-.24-.301C0 19.784.005 18.513.01 18.268v-.015c.005-.038.005-.077.005-.12.028-.941.088-3.144 2.094-3.855.013-.003.027-.01.046-.013 2.093-.55 3.817-1.786 3.836-1.8a.607.607 0 0 1 .869.16.65.65 0 0 1-.153.89c-.078.053-1.918 1.378-4.22 1.988-1.076.396-1.196 1.582-1.229 2.666 0 .046-.004.084-.004.12-.01.427.023 1.092.097 1.471.753.44 3.706 1.957 8.152 1.957 4.465 0 7.4-1.51 8.149-1.952.073-.379.101-1.042.097-1.47-.005-.04-.005-.078-.005-.12-.032-1.085-.152-2.27-1.23-2.669-2.301-.61-4.14-1.93-4.22-1.987a.651.651 0 0 1-.152-.893.611.611 0 0 1 .87-.156c.018.014 1.751 1.25 3.835 1.799.014.006.033.009.047.014 2.005.706 2.065 2.909 2.093 3.853 0 .043.005.08.005.12v.016c.005.246.01 1.516-.222 2.15z"/></g></g></svg>