<svg xmlns="http://www.w3.org/2000/svg" width="40" height="35" viewBox="0 0 40 35"><g><g><path fill="#a3acb5" d="M39.436 34.17c-.376.528-1.015.83-1.654.83H8.872c-.639 0-1.24-.302-1.654-.83-.414-.527-.526-1.205-.376-1.845l1.579-5.539c.075-.263.15-.528.263-.79H4.7c-.526 0-.977-.227-1.278-.64-.338-.415-.451-.942-.3-1.433l.977-3.542c.037-.15.112-.3.15-.452H1.353c-.413 0-.827-.187-1.052-.526-.226-.3-.301-.716-.188-1.093l.601-2.186c.714-2.297 2.256-2.975 3.985-3.427a6.502 6.502 0 0 1-.864-3.241c0-2.108 1.691-3.806 3.797-3.767.639 0 1.203.114 1.766.414.076.038.15.075.226.152 1.015-1.621 2.82-2.713 4.85-2.713.676 0 1.353.113 1.992.338A8.452 8.452 0 0 1 23.571 0c4.7 0 8.497 3.805 8.497 8.515 0 6.33-3.985 11.866-8.497 11.866-4.586 0-8.458-5.424-8.458-11.866 0-1.167.225-2.26.639-3.278a4.767 4.767 0 0 0-1.278-.189c-2.331 0-4.249 1.922-4.249 4.256 0 2.64 1.241 5.201 2.97 6.105.376.19.527.64.339 1.018a.792.792 0 0 1-.677.413c-.113 0-.225 0-.338-.075-.301-.15-.602-.338-.865-.565a.738.738 0 0 1-.338.19c-3.233.826-4.888 1.656-5.752 4.407L4.586 24.3c0 .075.038.114.038.152.038.036.038.036.075.036h4.737a9.334 9.334 0 0 1 5.489-4.031l.45-.112a1.878 1.878 0 0 1 1.918.602c1.654 1.885 3.76 2.035 5.978 2.035s4.323-.15 5.977-2.035a1.878 1.878 0 0 1 1.917-.602l.451.075c3.046.79 5.452 3.09 6.429 6.066.075.075.15.187.188.3l1.579 5.502a2.099 2.099 0 0 1-.376 1.882zM16.692 7.609c4.022.793 7.556-.112 8.609-2.26.037-.036.037-.075.075-.112a.634.634 0 0 1 .263-.378c.338-.264.79-.188 1.053.152a3.54 3.54 0 0 0 3.533 1.395c-.902-2.828-3.533-4.899-6.654-4.899a6.862 6.862 0 0 0-6.015 3.541c-.037.037-.037.113-.075.151a.49.49 0 0 1-.113.15 7.884 7.884 0 0 0-.676 2.26zm-.076 1.508c.264 5.275 3.384 9.756 6.955 9.756 3.722 0 6.993-4.858 6.993-10.396 0-.227 0-.414-.038-.64-.3.074-.639.113-.94.113a5.015 5.015 0 0 1-3.345-1.282c-1.279 1.77-3.76 2.713-6.767 2.713-.903 0-1.88-.077-2.858-.264zM1.654 18.422H5c1.316-2.072 3.308-2.824 5.564-3.39-1.128-1.469-1.842-3.579-1.842-5.728 0-.64.113-1.24.3-1.806-.112 0-.187-.038-.3-.075-.339-.19-.677-.265-1.09-.265a2.28 2.28 0 0 0-2.294 2.298c0 1.506.715 2.977 1.692 3.504a.778.778 0 0 1 .3 1.018.791.791 0 0 1-.676.414c-.113 0-.225 0-.338-.074a3.092 3.092 0 0 1-.564-.378c-.075.075-.188.113-.301.15-1.88.452-2.82.904-3.27 2.45zm36.73 14.28l-.828-2.863a.617.617 0 0 1-.15-.264l-.677-2.335a7.75 7.75 0 0 0-5.45-5.313l-.452-.113a.482.482 0 0 0-.451.15c-2.068 2.376-4.624 2.563-7.105 2.563-2.482 0-5.038-.187-7.106-2.562-.112-.113-.3-.19-.413-.151l-.451.113A7.685 7.685 0 0 0 9.85 27.24l-1.58 5.5a.69.69 0 0 0 .113.528c.076.075.226.225.489.225h28.91c.263 0 .413-.15.489-.225a.747.747 0 0 0 .112-.566z"/></g></g></svg>