<svg xmlns="http://www.w3.org/2000/svg" width="19" height="20" viewBox="0 0 19 20"><g><g><path fill="#ff6b00" d="M9.753 19.963A.927.927 0 0 1 9.5 20a.93.93 0 0 1-.253-.037C0 17.068.145 10.207.25 5.199c.012-.536.022-1.049.022-1.538 0-.385.346-.695.773-.695 3.304 0 5.819-.859 7.915-2.702a.834.834 0 0 1 1.077 0c2.097 1.843 4.613 2.702 7.917 2.702.427 0 .772.31.772.695 0 .49.011 1 .023 1.538.105 5.007.25 11.869-8.997 14.764zm7.452-14.737c-.007-.303-.013-.596-.017-.881-3.095-.118-5.57-.965-7.688-2.63-2.118 1.665-4.593 2.512-7.687 2.63-.004.285-.01.578-.017.881C1.69 10.261 1.57 15.96 9.5 18.562c7.93-2.603 7.81-8.3 7.705-13.336zm-3.952 2.381a.653.653 0 0 1 0 .988l-4.275 3.862a.808.808 0 0 1-.546.202.808.808 0 0 1-.547-.202l-2.137-1.929a.652.652 0 0 1 0-.987.83.83 0 0 1 1.092 0l1.592 1.436 3.728-3.37a.839.839 0 0 1 1.093 0z"/></g></g></svg>