<svg xmlns="http://www.w3.org/2000/svg" width="27" height="15" viewBox="0 0 27 15"><g><g><path fill="#fd7532" d="M27 6.973v5.593a.67.67 0 0 1-.663.673h-1.48C24.63 14.249 23.747 15 22.686 15c-1.06 0-1.944-.758-2.17-1.761h-7.944c-.226 1.01-1.11 1.761-2.17 1.761A2.23 2.23 0 0 1 8.23 13.24H6.214a.67.67 0 0 1-.663-.673v-2.345h-2.58a.67.67 0 0 1-.662-.673c0-.37.298-.675.663-.675H6.22c.364 0 .663.304.663.675v2.35h1.309c.05 0 .094.006.143.016a2.225 2.225 0 0 1 2.066-1.43c.934 0 1.735.59 2.066 1.42.028-.006.055-.006.083-.006h6.242V1.346H6.882v2.345a.67.67 0 0 1-.662.673H2.972a.67.67 0 0 1-.663-.673.67.67 0 0 1 .663-.673h2.58V.673A.67.67 0 0 1 6.213 0H19.45a.67.67 0 0 1 .663.674V2.2h2.778c1.155 0 2.193.443 2.922 1.246C26.586 4.296 27 5.52 27 6.973zm-15.698 5.772a.908.908 0 0 0-.9-.915c-.498 0-.901.41-.901.915 0 .505.403.914.9.914s.9-.409.9-.914zm12.284 0a.909.909 0 0 0-.9-.915c-.497 0-.9.41-.9.915 0 .505.403.914.9.914a.914.914 0 0 0 .9-.914zm2.088-5.767c0-2.149-1.038-3.433-2.778-3.433h-2.779v8.353h.509a2.228 2.228 0 0 1 2.06-1.414c.928 0 1.729.59 2.06 1.414h.928zm-13.72.287H.662A.67.67 0 0 1 0 6.591a.67.67 0 0 1 .663-.673h11.296l-.492-.5a.681.681 0 0 1 0-.953.656.656 0 0 1 .94 0l1.623 1.65.006.005c.01.017.028.028.039.044.005.012.01.018.016.029.011.01.017.016.022.028l.017.034c.005.011.01.016.016.028l.017.033c0 .011.005.018.01.028.006.012.006.023.012.034.005.006.005.017.011.028 0 .011.005.023.005.034 0 .01.006.022.006.034 0 .016.006.027.006.038a.546.546 0 0 1 .005.162c0 .013-.005.018-.005.03 0 .016-.006.027-.006.039 0 .01-.006.023-.006.033 0 .012 0 .023-.005.034-.006.006-.006.017-.011.028-.006.011-.006.023-.011.034 0 .01-.006.016-.011.028a1.242 1.242 0 0 1-.017.033c-.005.012-.01.017-.016.029a3.388 3.388 0 0 1-.017.033c-.01.012-.016.017-.022.028-.005.011-.011.017-.016.028-.011.017-.028.028-.04.045l-.005.006-1.707 1.733a.674.674 0 0 1-.47.197.665.665 0 0 1-.469-.197.682.682 0 0 1 0-.954z"/></g></g></svg>