<svg xmlns="http://www.w3.org/2000/svg" width="59" height="63" viewBox="0 0 59 63"><g><g><path fill="#ff6b00" d="M14.63 16.637c0 .675-.546 1.224-1.218 1.224-.674 0-1.22-.548-1.22-1.224 0-.676.546-1.223 1.22-1.223.672 0 1.219.547 1.219 1.223zm10.974 22.876c0 .676-.546 1.223-1.22 1.223h-3.657v3.67c0 .676-.546 1.223-1.22 1.223a1.22 1.22 0 0 1-1.219-1.223v-3.67h-3.657c-.673 0-1.22-.547-1.22-1.223 0-.675.547-1.223 1.22-1.223h3.657v-3.67c0-.675.546-1.224 1.22-1.224.673 0 1.219.549 1.219 1.224v3.67h3.657c.674 0 1.22.548 1.22 1.223zM53.72 52.76L38.94 61.323c-4.62 2.676-10.515 1.139-13.249-3.459H6.096C2.735 57.864 0 55.119 0 51.746v-23.69c0-1.315.433-2.617 1.219-3.671l6.096-8.156v-3.472a3.675 3.675 0 0 1-2.438-3.46V3.67C4.877 1.646 6.517 0 8.535 0H30.48a3.669 3.669 0 0 1 3.657 3.67v5.627a3.673 3.673 0 0 1-2.438 3.46v3.472l6.096 8.155a6.177 6.177 0 0 1 1.22 3.671v10.623l4.952-2.869c4.669-2.705 10.628-1.102 13.323 3.582 2.709 4.71 1.058 10.687-3.57 13.369zM7.316 3.67v5.627c0 .675.546 1.223 1.219 1.223H30.48c.673 0 1.22-.548 1.22-1.223V3.67c0-.675-.547-1.224-1.22-1.224H8.535c-.673 0-1.22.55-1.22 1.224zM2.464 27.647h34.087a3.712 3.712 0 0 0-.706-1.795L29.87 17.86H18.288c-.673 0-1.219-.549-1.219-1.224 0-.676.546-1.223 1.22-1.223H29.26v-2.447H9.754v3.67c0 .264-.086.522-.244.734l-6.34 8.481a3.705 3.705 0 0 0-.706 1.795zm3.632 27.77h18.552a9.837 9.837 0 0 1-.058-4.906H2.439v1.235c0 2.024 1.64 3.67 3.657 3.67zm23.09-11.045l7.39-4.282v-9.996H2.44v17.983h23.107a9.705 9.705 0 0 1 3.64-3.705zM44.337 55.37l-7.315-12.713-6.618 3.834c-3.477 2.014-4.708 6.48-2.677 10.028a7.298 7.298 0 0 0 9.992 2.685zM55.18 40.614a7.297 7.297 0 0 0-9.992-2.686l-6.052 3.506 7.315 12.713 6.052-3.507c3.473-2.011 4.708-6.494 2.677-10.026z"/></g></g></svg>