<svg xmlns="http://www.w3.org/2000/svg" width="70" height="66" viewBox="0 0 70 66"><g><g><path fill="#ff6b00" d="M29.494 1.612A1.292 1.292 0 0 1 30.6.155c.712-.1 1.369.392 1.47 1.096l2.057 14.416a1.29 1.29 0 0 1-1.288 1.468 1.296 1.296 0 0 1-1.285-1.108zm33.247 3.921a1.28 1.28 0 0 1 0-1.82 1.307 1.307 0 0 1 1.838 0l1.018 1.007 1.018-1.008a1.307 1.307 0 0 1 1.839 0 1.28 1.28 0 0 1 0 1.821l-1.018 1.009 1.017 1.008a1.28 1.28 0 0 1 0 1.82 1.301 1.301 0 0 1-.92.378c-.332 0-.664-.126-.918-.377l-1.018-1.008L64.58 9.37a1.309 1.309 0 0 1-1.839 0 1.279 1.279 0 0 1 0-1.821l1.018-1.008zM14.567 8.431a1.279 1.279 0 0 1 .241-1.805 1.307 1.307 0 0 1 1.823.239l11.475 14.837a1.28 1.28 0 0 1-.242 1.805c-.236.18-.514.266-.79.266a1.3 1.3 0 0 1-1.032-.506zM4.468 9.436a1.309 1.309 0 0 1 1.823-.237l.43.328c.57.433.676 1.241.24 1.805-.257.33-.643.504-1.033.504-.276 0-.555-.087-.79-.267l-.43-.328a1.279 1.279 0 0 1-.24-1.805zm12.434 19.509a1.29 1.29 0 0 1 1.118 1.445 1.296 1.296 0 0 1-1.46 1.108L3.269 29.754a1.29 1.29 0 0 1-1.118-1.446A1.296 1.296 0 0 1 3.609 27.2zM8.706 12.663a1.308 1.308 0 0 1 1.822-.237l12.636 9.619a1.28 1.28 0 0 1 .238 1.806c-.256.33-.641.503-1.032.503-.276 0-.554-.087-.79-.267L8.943 14.468a1.28 1.28 0 0 1-.238-1.805zm27.08 3.144l1.992-14.542A1.296 1.296 0 0 1 39.24.164c.712.095 1.21.744 1.114 1.448l-1.991 14.54a1.296 1.296 0 0 1-1.463 1.104 1.29 1.29 0 0 1-1.113-1.45zM67.65 36.9a1.297 1.297 0 0 1-1.46 1.108l-17.827-2.34a1.29 1.29 0 0 1-1.118-1.444c.094-.706.748-1.2 1.46-1.108l17.827 2.338A1.29 1.29 0 0 1 67.65 36.9zm-1.114-7.1L53.16 31.535a1.296 1.296 0 0 1-1.458-1.11 1.29 1.29 0 0 1 1.121-1.443L66.2 27.248a1.297 1.297 0 0 1 1.457 1.108 1.29 1.29 0 0 1-1.12 1.444zm-5.412-17.1a1.28 1.28 0 0 1-.241 1.806l-12.585 9.552c-.236.179-.514.265-.79.265-.39 0-.776-.173-1.032-.505a1.28 1.28 0 0 1 .241-1.805l12.585-9.552a1.309 1.309 0 0 1 1.822.24zm-5.537-8.89l.115-.148a1.307 1.307 0 0 1 1.823-.236 1.28 1.28 0 0 1 .238 1.806l-.115.147c-.256.33-.642.503-1.032.503-.276 0-.555-.088-.791-.267a1.279 1.279 0 0 1-.238-1.805zM57.901.825l.122-.157a1.31 1.31 0 0 1 1.822-.235 1.28 1.28 0 0 1 .238 1.807l-.122.155a1.303 1.303 0 0 1-1.822.235A1.28 1.28 0 0 1 57.9.825zM41.777 21.627L53.207 6.89a1.309 1.309 0 0 1 1.824-.236 1.28 1.28 0 0 1 .238 1.806L43.84 23.196c-.257.329-.642.502-1.032.502-.277 0-.555-.086-.791-.266a1.279 1.279 0 0 1-.239-1.805zM1.693 8.61c-.276 0-.555-.087-.79-.266L.675 8.17a1.279 1.279 0 0 1-.239-1.804A1.307 1.307 0 0 1 2.26 6.13l.226.17a1.28 1.28 0 0 1 .239 1.807c-.256.33-.642.503-1.032.503zm41.499 34.016a1.284 1.284 0 0 1-.515 1.364 1.31 1.31 0 0 1-1.468.017l-6.09-4.022-6.562 4.044a1.313 1.313 0 0 1-1.467-.063 1.283 1.283 0 0 1-.471-1.38l1.98-6.977-5.911-4.934c-.41-.343-.566-.9-.392-1.403a1.298 1.298 0 0 1 1.177-.87l7.313-.29 2.91-7.094a1.305 1.305 0 0 1 2.423.038l2.54 6.8 7.709.549a1.3 1.3 0 0 1 1.149.906 1.282 1.282 0 0 1-.437 1.39l-5.743 4.492zm-4.123-8.94l3.771-2.95-5.203-.372a1.298 1.298 0 0 1-1.126-.837l-1.668-4.465-1.964 4.788a1.301 1.301 0 0 1-1.152.802l-4.803.191 3.99 3.33c.39.326.552.847.414 1.333l-1.3 4.585 4.43-2.731a1.313 1.313 0 0 1 1.407.022l4 2.641-1.253-5.017a1.282 1.282 0 0 1 .457-1.32zM60.762 63.93a1.28 1.28 0 0 1-.24 1.805c-.236.18-.515.266-.79.266-.391 0-.777-.174-1.033-.504l-.188-.243a1.28 1.28 0 0 1 .241-1.806 1.309 1.309 0 0 1 1.822.24zM1.791 23.517a1.28 1.28 0 0 1 0-1.822l1.017-1.007-1.018-1.009a1.28 1.28 0 0 1 0-1.821 1.31 1.31 0 0 1 1.839 0l1.018 1.009 1.017-1.01a1.31 1.31 0 0 1 1.839 0 1.28 1.28 0 0 1 0 1.822l-1.018 1.009 1.018 1.007a1.28 1.28 0 0 1 0 1.822 1.301 1.301 0 0 1-.92.377c-.332 0-.665-.125-.919-.377l-1.017-1.008-1.018 1.008a1.31 1.31 0 0 1-1.838 0zm56.042 38.74a1.308 1.308 0 0 1-1.822-.24l-.188-.242a1.28 1.28 0 0 1 .24-1.805 1.308 1.308 0 0 1 1.823.237l.188.244a1.28 1.28 0 0 1-.24 1.805zm11.66-15.694a1.279 1.279 0 0 1 0 1.82 1.3 1.3 0 0 1-.92.378 1.3 1.3 0 0 1-.92-.378l-1.017-1.008-1.018 1.008a1.308 1.308 0 0 1-1.838 0 1.278 1.278 0 0 1 0-1.82l1.018-1.009-1.018-1.008a1.28 1.28 0 0 1 0-1.821 1.309 1.309 0 0 1 1.838 0l1.018 1.009 1.018-1.009a1.308 1.308 0 0 1 1.838 0 1.278 1.278 0 0 1 0 1.821l-1.018 1.008zm-8.399 5.983a1.3 1.3 0 0 1-1.032.504c-.276 0-.555-.088-.79-.268L47.157 43.56a1.279 1.279 0 0 1-.238-1.805 1.307 1.307 0 0 1 1.823-.236l12.112 9.222a1.28 1.28 0 0 1 .24 1.805zm-5.861 4.232a1.28 1.28 0 0 1-.242 1.804c-.236.18-.514.266-.79.266a1.3 1.3 0 0 1-1.032-.505l-6.463-8.355a1.281 1.281 0 0 1 .242-1.806 1.308 1.308 0 0 1 1.822.239zM22.686 43.496l-12.188 9.25c-.236.18-.514.266-.79.266-.39 0-.776-.173-1.032-.504a1.28 1.28 0 0 1 .24-1.805l12.19-9.251a1.308 1.308 0 0 1 1.821.239 1.28 1.28 0 0 1-.24 1.805zM9.714 60.57l-1.018 1.007 1.018 1.009a1.28 1.28 0 0 1 0 1.822 1.305 1.305 0 0 1-1.838 0l-1.018-1.009-1.018 1.009a1.31 1.31 0 0 1-1.838 0 1.28 1.28 0 0 1 0-1.822l1.018-1.009-1.018-1.007a1.28 1.28 0 0 1 0-1.821 1.309 1.309 0 0 1 1.839 0l1.017 1.008 1.018-1.008a1.308 1.308 0 0 1 1.839 0 1.279 1.279 0 0 1 0 1.82zm11.597-24.905l-17.71 2.297a1.296 1.296 0 0 1-1.458-1.11 1.289 1.289 0 0 1 1.12-1.443l17.71-2.297a1.3 1.3 0 0 1 1.458 1.11 1.29 1.29 0 0 1-1.12 1.443zm19.043 28.199a1.289 1.289 0 0 1-1.29 1.46c-.64 0-1.198-.47-1.286-1.115l-1.991-14.54a1.289 1.289 0 0 1 1.113-1.45 1.299 1.299 0 0 1 1.463 1.103zm-6.228-14.055l-2.058 14.416a1.296 1.296 0 0 1-1.469 1.094 1.29 1.29 0 0 1-1.105-1.455l2.058-14.416c.101-.704.76-1.195 1.47-1.095.71.1 1.205.751 1.104 1.456zm-11.06.163l-6.474 8.346a1.304 1.304 0 0 1-1.823.236 1.28 1.28 0 0 1-.238-1.805l6.475-8.348a1.309 1.309 0 0 1 1.822-.236 1.28 1.28 0 0 1 .239 1.807z"/></g></g></svg>