<svg xmlns="http://www.w3.org/2000/svg" width="48" height="75" viewBox="0 0 48 75"><g><g><path fill="#ff6b00" d="M36.226 72.498v1.405c0 .606-.497 1.096-1.109 1.096H16.171c-.612 0-1.109-.49-1.109-1.096 0-.606.497-1.096 1.109-1.096h17.837v-.31c0-3.301-2.715-5.987-6.054-5.987h-16.22c-3.623 0-6.57-2.917-6.57-6.5 0-.167.006-.333.02-.497a7.355 7.355 0 0 0-2.967 5.9c0 4.077 3.353 7.394 7.475 7.394h1.963c.612 0 1.108.49 1.108 1.096 0 .606-.496 1.096-1.108 1.096H9.692C4.348 75 0 70.7 0 65.412c0-4.134 2.664-7.789 6.628-9.095a1.116 1.116 0 0 1 1.206.343c.292.35.335.842.11 1.237a4.268 4.268 0 0 0-.563 2.113c0 2.374 1.953 4.306 4.353 4.306h16.22c4.561 0 8.272 3.67 8.272 8.182zm-3.529-39.064c-1.393 3.788-5.022 6.145-8.878 6.145a9.477 9.477 0 0 1-3.219-.564c-4.89-1.761-7.42-7.129-5.64-11.967a9.312 9.312 0 0 1 4.88-5.269 9.471 9.471 0 0 1 7.217-.311 9.492 9.492 0 0 1 3.719 2.45c.414.447.384 1.141-.067 1.55-.45.41-1.152.381-1.566-.067a7.138 7.138 0 0 0-2.845-1.872 7.245 7.245 0 0 0-5.522.238 7.124 7.124 0 0 0-3.734 4.031 7.027 7.027 0 0 0 .242 5.463 7.144 7.144 0 0 0 4.074 3.693c3.741 1.347 7.894-.568 9.256-4.27a7.065 7.065 0 0 0 .31-3.779c-.116-.594.278-1.169.88-1.283a1.109 1.109 0 0 1 1.297.872 9.23 9.23 0 0 1-.404 4.94zm-3.19-2.878l-1.124 3.056c-.1.273-.307.496-.573.62a1.122 1.122 0 0 1-.848.035l-1.489-.536-.542 1.473a1.11 1.11 0 0 1-1.42.655l-3.09-1.111a1.107 1.107 0 0 1-.625-.567 1.087 1.087 0 0 1-.037-.84l.542-1.472-1.49-.536a1.107 1.107 0 0 1-.625-.567 1.084 1.084 0 0 1-.037-.838l1.124-3.057c.21-.57.846-.862 1.421-.655l1.49.536.541-1.473a1.116 1.116 0 0 1 1.42-.655l3.09 1.112c.576.208.872.837.663 1.405l-.542 1.474 1.489.536c.575.207.872.835.663 1.405zm-2.462.28l-1.489-.536a1.094 1.094 0 0 1-.662-1.405l.542-1.473-1.007-.363-.542 1.474c-.1.273-.306.495-.573.619a1.13 1.13 0 0 1-.847.036l-1.49-.537-.366.996 1.49.537c.575.206.872.836.662 1.405l-.542 1.473 1.006.362.542-1.473a1.11 1.11 0 0 1 1.42-.655l1.49.536zm20.746-19.055l-2.187 5.944-.002.005-.015.033a1.035 1.035 0 0 1-.033.078l-15.49 30.593c-1.047 2.07-3.165 3.295-5.39 3.295a6.088 6.088 0 0 1-2.061-.361l-.692-.25-2.466 6.702a1.11 1.11 0 0 1-1.42.654l-8.113-2.92a1.102 1.102 0 0 1-.626-.567 1.084 1.084 0 0 1-.037-.839l2.466-6.7-.692-.25c-2.877-1.037-4.512-4.04-3.802-6.986l5.306-22.042c.142-.59.74-.954 1.336-.813.595.141.963.732.821 1.32L9.387 40.722c-.448 1.863.585 3.76 2.404 4.416l1.733.624 8.113 2.922 1.734.624c1.819.654 3.844-.143 4.711-1.855L43.014 17.96l-5.586-2.012-20.315-7.314-1.37 5.69c-.142.59-.74.953-1.336.812a1.096 1.096 0 0 1-.821-1.32l1.658-6.888.003-.008c.006-.025.014-.05.022-.075l.01-.033.002-.005L17.468.862c.21-.568.845-.863 1.42-.655l4.706 1.694h.001l.002.001 23.531 8.472c.575.207.872.837.663 1.407zM19.837 50.368l-6.03-2.171-2.086 5.67 6.03 2.172zM45.33 12.06l-2.624-.944-.714 1.941a1.11 1.11 0 0 1-1.421.655 1.092 1.092 0 0 1-.663-1.404l.715-1.942-2.624-.945-.714 1.942a1.109 1.109 0 0 1-1.42.656 1.094 1.094 0 0 1-.663-1.407l.714-1.942-2.623-.943-.715 1.941a1.11 1.11 0 0 1-1.42.656 1.093 1.093 0 0 1-.663-1.405l.715-1.942-2.624-.944-.714 1.94a1.109 1.109 0 0 1-1.42.656 1.094 1.094 0 0 1-.663-1.406l.714-1.941-2.623-.944-.715 1.94a1.11 1.11 0 0 1-1.42.656 1.093 1.093 0 0 1-.663-1.405l.715-1.942-2.624-.945-1.429 3.884 13.079 4.71L43.9 15.942z"/></g></g></svg>