<svg xmlns="http://www.w3.org/2000/svg" width="55" height="37" viewBox="0 0 55 37"><defs><linearGradient id="bjz1a" x1="55" x2="0" y1="19" y2="18" gradientUnits="userSpaceOnUse"><stop offset="0" stop-color="#ff6b00"/><stop offset="1" stop-color="#a6c93a"/></linearGradient></defs><g><g><path fill="#a8ca3f" d="M55 35.844A1.15 1.15 0 0 1 53.854 37H1.146A1.151 1.151 0 0 1 0 35.844c0-.64.513-1.157 1.146-1.157h1.146V21.97c0-.64.513-1.156 1.145-1.156h6.875a1.15 1.15 0 0 1 1.146 1.156v12.718h4.584V10.406c0-.638.513-1.156 1.145-1.156h6.875c.633 0 1.146.518 1.146 1.156v24.281h4.584V15.031c0-.638.513-1.156 1.145-1.156h6.875a1.15 1.15 0 0 1 1.146 1.156v19.656h4.584V1.156c0-.638.513-1.156 1.145-1.156h6.875c.633 0 1.146.518 1.146 1.156v33.531h1.146c.632 0 1.146.518 1.146 1.157zM9.167 23.124H4.583v11.563h4.584zm13.75-11.562h-4.584v23.125h4.584zm13.75 4.625h-4.584v18.5h4.584zm13.75-13.875h-4.584v32.375h4.584z"/><path fill="url(#bjz1a)" d="M55 35.844A1.15 1.15 0 0 1 53.854 37H1.146A1.151 1.151 0 0 1 0 35.844c0-.64.513-1.157 1.146-1.157h1.146V21.97c0-.64.513-1.156 1.145-1.156h6.875a1.15 1.15 0 0 1 1.146 1.156v12.718h4.584V10.406c0-.638.513-1.156 1.145-1.156h6.875c.633 0 1.146.518 1.146 1.156v24.281h4.584V15.031c0-.638.513-1.156 1.145-1.156h6.875a1.15 1.15 0 0 1 1.146 1.156v19.656h4.584V1.156c0-.638.513-1.156 1.145-1.156h6.875c.633 0 1.146.518 1.146 1.156v33.531h1.146c.632 0 1.146.518 1.146 1.157zM9.167 23.124H4.583v11.563h4.584zm13.75-11.562h-4.584v23.125h4.584zm13.75 4.625h-4.584v18.5h4.584zm13.75-13.875h-4.584v32.375h4.584z"/></g></g></svg>