<svg xmlns="http://www.w3.org/2000/svg" width="60" height="60" viewBox="0 0 60 60"><g><g><path fill="#fa4f01" d="M60 11.014v44.53a4.459 4.459 0 0 1-4.454 4.454H4.453A4.457 4.457 0 0 1 0 55.545v-3.032c0-.647.525-1.173 1.172-1.173h3.17a9.586 9.586 0 0 1-3.348-7.28c0-5.298 4.31-9.608 9.609-9.608s9.61 4.31 9.61 9.609c0 2.908-1.301 5.517-3.349 7.28h11.709a1.173 1.173 0 0 1 0 2.344H2.343v1.86c0 1.163.947 2.11 2.11 2.11h47.172a4.426 4.426 0 0 1-.533-2.11v-1.86h-12.46a1.172 1.172 0 1 1 0-2.345h13.632c.647 0 1.172.526 1.172 1.173v3.031c0 1.164.947 2.11 2.11 2.11 1.164 0 2.11-.946 2.11-2.11v-44.53a3.52 3.52 0 0 0-3.515-3.515h-5.586v1.465a3.52 3.52 0 0 1-3.516 3.515 3.52 3.52 0 0 1-3.516-3.515V7.499H21.836v1.465a3.52 3.52 0 0 1-3.516 3.515 3.52 3.52 0 0 1-3.515-3.515v-1.51a1.19 1.19 0 0 1-.313.045h-4.67a3.52 3.52 0 0 0-3.515 3.515v3.867h42.248a1.173 1.173 0 0 1 0 2.343H6.307v13.752a1.172 1.172 0 0 1-2.343 0V11.014a5.865 5.865 0 0 1 5.859-5.859h4.67c.108 0 .212.015.312.043V3.514A3.52 3.52 0 0 1 18.32-.002a3.52 3.52 0 0 1 3.516 3.516v1.641h19.687V3.514A3.52 3.52 0 0 1 45.04-.002a3.52 3.52 0 0 1 3.516 3.516v1.641h5.586c3.23 0 5.859 2.628 5.859 5.859zm-40.508-7.5c0-.646-.526-1.172-1.172-1.172-.646 0-1.172.526-1.172 1.172v5.45c0 .645.526 1.172 1.172 1.172.646 0 1.172-.527 1.172-1.172zm26.719 0c0-.646-.526-1.172-1.172-1.172-.646 0-1.172.526-1.172 1.172v5.45c0 .645.526 1.172 1.172 1.172.646 0 1.172-.527 1.172-1.172zM10.603 51.326c4.006 0 7.265-3.259 7.265-7.265 0-4.007-3.259-7.265-7.265-7.265s-7.266 3.258-7.266 7.265c0 4.006 3.26 7.265 7.266 7.265zm44.62-35.273c0 .308-.125.61-.343.828-.218.219-.52.343-.829.343a1.18 1.18 0 0 1-.828-.343 1.18 1.18 0 0 1-.344-.828 1.178 1.178 0 0 1 1.172-1.172 1.177 1.177 0 0 1 1.172 1.173zM35.341 52.512c0 .308-.125.61-.343.83a1.177 1.177 0 0 1-1.657 0 1.186 1.186 0 0 1-.344-.83 1.177 1.177 0 0 1 1.172-1.17c.309 0 .611.124.829.343.218.218.343.519.343.827zm-4.375-12.435a4.458 4.458 0 0 1-4.453 4.452 4.458 4.458 0 0 1-4.453-4.452 4.458 4.458 0 0 1 4.453-4.454 4.458 4.458 0 0 1 4.453 4.454zm-2.344 0c0-1.164-.946-2.11-2.11-2.11-1.162 0-2.108.946-2.108 2.11 0 1.163.946 2.11 2.109 2.11s2.11-.947 2.11-2.11zm13.282 0a4.458 4.458 0 0 1-4.454 4.452 4.458 4.458 0 0 1-4.453-4.452 4.458 4.458 0 0 1 4.453-4.454 4.458 4.458 0 0 1 4.454 4.454zm-2.344 0c0-1.164-.947-2.11-2.11-2.11-1.163 0-2.109.946-2.109 2.11 0 1.163.946 2.11 2.11 2.11 1.162 0 2.109-.947 2.109-2.11zm13.281 0a4.458 4.458 0 0 1-4.453 4.452 4.458 4.458 0 0 1-4.453-4.452 4.458 4.458 0 0 1 4.453-4.454 4.458 4.458 0 0 1 4.453 4.454zm-2.344 0c0-1.164-.946-2.11-2.11-2.11-1.162 0-2.108.946-2.108 2.11 0 1.163.946 2.11 2.109 2.11s2.11-.947 2.11-2.11zM20.03 27.889a4.459 4.459 0 0 1-4.454 4.454 4.459 4.459 0 0 1-4.453-4.454 4.459 4.459 0 0 1 4.453-4.454 4.459 4.459 0 0 1 4.454 4.454zm-2.344 0a2.111 2.111 0 0 0-2.11-2.11c-1.163 0-2.109.946-2.109 2.11 0 1.163.946 2.11 2.11 2.11 1.163 0 2.109-.947 2.109-2.11zm24.219 0a4.459 4.459 0 0 1-4.454 4.454 4.459 4.459 0 0 1-4.453-4.454 4.459 4.459 0 0 1 4.453-4.454 4.459 4.459 0 0 1 4.454 4.454zm-2.344 0a2.111 2.111 0 0 0-2.11-2.11c-1.163 0-2.109.946-2.109 2.11 0 1.163.946 2.11 2.11 2.11 1.162 0 2.109-.947 2.109-2.11zm13.281 0a4.459 4.459 0 0 1-4.453 4.454 4.459 4.459 0 0 1-4.453-4.454 4.459 4.459 0 0 1 4.453-4.454 4.459 4.459 0 0 1 4.453 4.454zm-2.344 0a2.111 2.111 0 0 0-2.11-2.11c-1.162 0-2.108.946-2.108 2.11 0 1.163.946 2.11 2.109 2.11s2.11-.947 2.11-2.11zm-19.531 0a4.459 4.459 0 0 1-4.453 4.454 4.459 4.459 0 0 1-4.453-4.454 4.459 4.459 0 0 1 4.453-4.454 4.459 4.459 0 0 1 4.453 4.454zm-2.344 0a2.111 2.111 0 0 0-2.11-2.11c-1.162 0-2.108.946-2.108 2.11 0 1.163.946 2.11 2.109 2.11s2.11-.947 2.11-2.11zM14.778 42.86l-4.645 4.647a1.174 1.174 0 0 1-1.658 0l-2.133-2.133A1.173 1.173 0 0 1 8 43.717l1.304 1.304 3.816-3.816a1.171 1.171 0 1 1 1.658 1.656z"/></g></g></svg>