<svg xmlns="http://www.w3.org/2000/svg" width="61" height="61" viewBox="0 0 61 61"><g><g><path fill="#fa590e" d="M61.026 1.218v53.824a5.96 5.96 0 0 1-5.954 5.954H24.587a5.96 5.96 0 0 1-5.954-5.954V36.843a1.191 1.191 0 0 1 2.382 0v18.199a3.577 3.577 0 0 0 3.573 3.574h30.484a3.577 3.577 0 0 0 3.573-3.574V22.566a23.984 23.984 0 0 1-4.405 1.165 25.45 25.45 0 0 1-4.199.345c-3.027 0-6.7-.527-10.67-2.23-8.956-3.84-16.281-1.239-18.356-.33v3.629a1.191 1.191 0 0 1-2.382 0V1.218c0-.658.534-1.192 1.191-1.192h40.012c.657 0 1.19.534 1.19 1.192zm-2.381 18.779V2.409h-37.63v16.539a23.876 23.876 0 0 1 4.427-1.174c3.436-.576 8.806-.715 14.868 1.883 4.407 1.89 8.928 2.475 13.437 1.741 2.319-.378 4.038-1.026 4.898-1.401zm-37.63 11.592a1.2 1.2 0 0 1-.349.842c-.221.222-.529.35-.842.35a1.2 1.2 0 0 1-.842-.35 1.198 1.198 0 0 1-.349-.842c0-.312.128-.62.35-.841a1.2 1.2 0 0 1 .841-.349c.313 0 .62.128.842.349.222.221.349.529.349.841zm34.294 2.135v9.924a1.19 1.19 0 1 1-2.382 0v-9.924a1.19 1.19 0 1 1 2.382 0zm-.001 14.45c0 .313-.126.62-.349.841a1.197 1.197 0 0 1-.842.348c-.313 0-.62-.126-.841-.348a1.2 1.2 0 0 1-.35-.841c0-.315.128-.62.35-.843a1.2 1.2 0 0 1 .841-.35 1.196 1.196 0 0 1 1.19 1.193zM14.823 34.319a7.336 7.336 0 0 1-2.163 5.221 7.335 7.335 0 0 1-5.22 2.162 7.335 7.335 0 0 1-5.221-2.162c-2.879-2.879-2.879-7.563 0-10.442 2.879-2.878 7.563-2.878 10.441 0a7.334 7.334 0 0 1 2.163 5.221zm-4.79 4.278l-6.87-6.87a5.01 5.01 0 0 0 .74 6.129A4.97 4.97 0 0 0 7.44 39.32c.93 0 1.82-.253 2.594-.724zm2.408-4.278c0-1.337-.52-2.592-1.465-3.537a4.988 4.988 0 0 0-3.536-1.463c-.9 0-1.799.242-2.593.724l6.87 6.87a4.97 4.97 0 0 0 .724-2.594zm5.176 19.296c0 4.07-3.312 7.383-7.383 7.383-4.07 0-7.383-3.312-7.383-7.383 0-4.072 3.312-7.384 7.383-7.384s7.383 3.312 7.383 7.384zm-8.574-4.857a5.01 5.01 0 0 0-3.81 4.857 5.01 5.01 0 0 0 3.81 4.857zm6.193 4.857a5.01 5.01 0 0 0-3.81-4.857v9.714a5.01 5.01 0 0 0 3.81-4.857z"/></g></g></svg>